o cornell_box
v -1.0 0.0 1.0
v 1.0 0.0 1.0
v -1.0 2.0 1.0
v 1.0 2.0 1.0
v -1.0 2.0 -1.0
v 1.0 2.0 -1.0
v -1.0 0.0 -1.0
v 1.0 0.0 -1.0

vt 0.0 0.0
vt 1.0 0.0
vt 0.0 1.0
vt 1.0 1.0

vn 0.0 -1.0 0.0
vn 0.0 0.0 1.0
vn 0.0 1.0 0.0
vn -1.0 0.0 0.0
vn 1.0 0.0 0.0

g cornell_box

usemtl cornell_top
f 3/1/1 5/3/1 4/2/1
f 5/3/1 6/4/1 4/2/1

usemtl cornell_back
f 5/4/2 7/2/2 6/3/2
f 7/2/2 8/1/2 6/3/2

usemtl cornell_bottom
f 7/1/3 1/3/3 8/2/3
f 1/3/3 2/4/3 8/2/3

usemtl cornell_right
f 2/1/4 4/3/4 8/2/4
f 4/3/4 6/4/4 8/2/4

usemtl cornell_left
f 7/1/5 5/3/5 1/2/5
f 5/3/5 3/4/5 1/2/5
