usemtl sphere_low
v 0.850547 0.000000 -0.525668
v 0.850551 -0.000000 0.525670
v -0.850550 0.000000 0.525669
v -0.850549 0.000000 -0.525669
v -0.000000 -0.525719 0.850631
v -0.000000 0.525719 0.850631
v 0.000000 0.525717 -0.850629
v 0.000000 -0.525717 -0.850629
v -0.525719 -0.850631 -0.000000
v 0.525719 -0.850632 0.000000
v 0.525719 0.850632 0.000000
v -0.525719 0.850631 -0.000000
v 0.000307 0.999998 -0.000005
v 0.000307 -0.999998 -0.000005
v -0.309060 -0.808800 -0.500237
v -0.309060 0.808800 -0.500237
v -0.499874 0.308690 -0.809082
v -0.499874 -0.308690 -0.809082
v -0.309060 0.808800 0.500237
v -0.309060 -0.808800 0.500237
v -0.499875 -0.308691 0.809083
v -0.499875 0.308691 0.809083
v -0.808918 0.500028 -0.308850
v -0.808918 0.500028 0.308850
v -0.999985 0.000307 0.000613
v -0.808918 -0.500028 0.308850
v -0.808918 -0.500028 -0.308850
v 0.309060 0.808800 0.500237
v 0.309060 -0.808800 0.500237
v 0.000613 0.000307 0.999987
v 0.499876 0.308691 0.809084
v 0.499876 -0.308691 0.809084
v 0.309060 -0.808799 -0.500236
v 0.309060 0.808799 -0.500236
v 0.499874 0.308690 -0.809081
v -0.000613 0.000307 -0.999984
v 0.499874 -0.308690 -0.809081
v 0.808919 0.500029 0.308851
v 0.808917 0.500027 -0.308849
v 0.999988 -0.000307 -0.000621
v 0.808917 -0.500027 -0.308849
v 0.808919 -0.500029 0.308851
vt 0.181818 0.250000
vt 0.363636 0.250000
vt 0.545455 0.250000
vt 0.727273 0.250000
vt 0.909091 0.250000
vt 0.090909 0.416667
vt 0.272727 0.416667
vt 0.454545 0.416667
vt 0.636364 0.416667
vt 0.818182 0.416667
vt 1.000000 0.416667
vt 0.000000 0.583333
vt 0.181818 0.583333
vt 0.363636 0.583333
vt 0.545455 0.583333
vt 0.727273 0.583333
vt 0.909091 0.583333
vt 0.090909 0.750000
vt 0.272727 0.750000
vt 0.454545 0.750000
vt 0.636364 0.750000
vt 0.818182 0.750000
vt 0.863636 0.333333
vt 0.772727 0.333333
vt 0.318182 0.666667
vt 0.409091 0.666667
vt 0.454545 0.583333
vt 0.590909 0.333333
vt 0.681818 0.333333
vt 0.545455 0.416667
vt 0.500000 0.500000
vt 0.136364 0.333333
vt 0.954545 0.333333
vt 0.272727 0.583333
vt 0.227273 0.500000
vt 0.181818 0.416667
vt 0.409091 0.333333
vt 0.500000 0.333333
vt 0.318182 0.333333
vt 0.227273 0.333333
vt 0.363636 0.416667
vt 0.318182 0.500000
vt 0.409091 0.500000
vt 0.909091 0.416667
vt 0.136364 0.666667
vt 0.227273 0.666667
vt 0.136364 0.500000
vt 0.045455 0.500000
vt 0.954545 0.500000
vt 0.090909 0.583333
vt 0.590909 0.666667
vt 0.500000 0.666667
vt 0.727273 0.416667
vt 0.681818 0.500000
vt 0.590909 0.500000
vt 0.636364 0.583333
vt 0.863636 0.500000
vt 0.772727 0.500000
vt 0.818182 0.583333
vt 0.772727 0.666667
vt 0.681818 0.666667
vt 0.863636 0.666667
vt 0.045455 0.666667
vn 0.850796 0.000038 0.525497
vn 0.808993 -0.499954 0.309155
vn 1.000000 -0.000101 -0.000141
vn 0.850539 0.000038 -0.525912
vn 0.809004 0.500004 -0.309045
vn 0.499947 -0.308796 -0.809134
vn 0.500027 0.308797 -0.809084
vn 0.808892 -0.500114 -0.309162
vn -0.000077 -0.525581 0.850744
vn 0.500166 -0.309031 0.808909
vn 0.000202 0.000068 1.000000
vn 0.525743 -0.850644 -0.000002
vn 0.309132 -0.808856 0.500188
vn 0.809105 0.499844 0.309039
vn 0.500246 0.309032 0.808859
vn -0.850794 -0.000038 -0.525500
vn -0.809105 -0.499843 -0.309041
vn -1.000000 0.000101 0.000135
vn -0.850543 -0.000038 0.525906
vn -0.808893 0.500114 0.309158
vn -0.499947 -0.308797 0.809134
vn -0.809006 -0.500004 0.309041
vn -0.000077 0.525785 0.850618
vn -0.309133 0.808906 0.500108
vn -0.500027 0.308798 0.809084
vn 0.000077 0.525783 -0.850619
vn -0.000202 0.000068 -1.000000
vn -0.500246 0.309031 -0.808860
vn -0.808993 0.499953 -0.309158
vn -0.500166 -0.309030 -0.808910
vn -0.309133 -0.808906 0.500108
vn 0.309132 0.808857 0.500188
vn -0.309134 0.808904 -0.500111
vn 0.309136 0.808853 -0.500192
vn 0.000077 -0.525579 -0.850745
vn 0.309136 -0.808853 -0.500192
vn -0.309134 -0.808903 -0.500111
vn 0.000068 -1.000000 -0.000002
vn -0.525538 -0.850770 -0.000000
vn 0.000068 1.000000 -0.000002
vn 0.525743 0.850644 -0.000002
vn -0.525538 0.850770 -0.000000
s 1
g triSphere1
f 2/17/1 42/62/2 40/59/3
f 1/16/4 39/58/5 40/59/3
f 1/16/4 37/56/6 35/54/7
f 1/16/4 35/54/7 39/58/5
f 1/16/4 41/61/8 37/56/6
f 5/13/9 32/50/10 30/47/11
f 10/18/12 42/63/2 29/45/13
f 2/17/1 38/57/14 31/49/15
f 4/8/16 27/43/17 25/41/18
f 3/7/19 24/39/20 25/41/18
f 5/13/9 30/47/11 21/35/21
f 3/7/19 26/42/22 21/35/21
f 6/6/23 19/32/24 22/36/25
f 7/9/26 36/55/27 17/30/28
f 4/8/16 23/38/29 17/30/28
f 4/8/16 18/31/30 27/43/17
f 5/13/9 20/34/31 29/46/13
f 6/11/23 28/44/32 19/33/24
f 7/9/26 16/29/33 34/53/34
f 8/15/35 33/52/36 15/27/37
f 15/27/37 14/26/38 9/14/39
f 14/26/38 33/52/36 10/20/12
f 15/27/37 33/52/36 14/26/38
f 34/53/34 13/24/40 11/10/41
f 13/24/40 16/29/33 12/4/42
f 34/53/34 16/29/33 13/24/40
f 19/33/24 13/23/40 12/5/42
f 13/23/40 28/44/32 11/10/41
f 19/33/24 28/44/32 13/23/40
f 29/46/13 14/25/38 10/19/12
f 14/25/38 20/34/31 9/14/39
f 29/46/13 20/34/31 14/25/38
f 27/43/17 15/27/37 9/14/39
f 15/27/37 18/31/30 8/15/35
f 27/43/17 18/31/30 15/27/37
f 17/30/28 16/28/33 7/9/26
f 16/28/33 23/38/29 12/3/42
f 17/30/28 23/38/29 16/28/33
f 17/30/28 18/31/30 4/8/16
f 18/31/30 36/55/27 8/15/35
f 17/30/28 36/55/27 18/31/30
f 22/36/25 24/40/20 3/7/19
f 24/40/20 19/32/24 12/1/42
f 22/36/25 19/32/24 24/40/20
f 21/35/21 20/34/31 5/13/9
f 20/34/31 26/42/22 9/14/39
f 21/35/21 26/42/22 20/34/31
f 21/35/21 22/36/25 3/7/19
f 22/36/25 30/47/11 6/6/23
f 21/35/21 30/47/11 22/36/25
f 25/41/18 23/37/29 4/8/16
f 23/37/29 24/39/20 12/2/42
f 25/41/18 24/39/20 23/37/29
f 25/41/18 26/42/22 3/7/19
f 26/42/22 27/43/17 9/14/39
f 25/41/18 27/43/17 26/42/22
f 31/49/15 28/44/32 6/11/23
f 28/44/32 38/57/14 11/10/41
f 31/49/15 38/57/14 28/44/32
f 29/45/13 32/50/10 5/13/9
f 32/50/10 42/63/2 2/12/1
f 29/45/13 42/63/2 32/50/10
f 30/47/11 31/48/15 6/6/23
f 31/48/15 32/50/10 2/12/1
f 30/47/11 32/50/10 31/48/15
f 37/56/6 33/51/36 8/15/35
f 33/51/36 41/61/8 10/21/12
f 37/56/6 41/61/8 33/51/36
f 39/58/5 34/53/34 11/10/41
f 34/53/34 35/54/7 7/9/26
f 39/58/5 35/54/7 34/53/34
f 35/54/7 36/55/27 7/9/26
f 36/55/27 37/56/6 8/15/35
f 35/54/7 37/56/6 36/55/27
f 40/59/3 38/57/14 2/17/1
f 38/57/14 39/58/5 11/10/41
f 40/59/3 39/58/5 38/57/14
f 40/59/3 41/60/8 1/16/4
f 41/60/8 42/62/2 10/22/12
f 40/59/3 42/62/2 41/60/8
